# xmcd
#
# Track frame offsets:
#	150
#	30294
#	58902
#	88493
#	128074
#	174494
#
# Disc length: 3232 seconds
#
# Revision: 0
# Processed by: cddbd v1.5.2PL0 Copyright (c) Steve Scherf et al.
# Submitted via: audiograbber 1.83.01
#
DISCID=4b0c9e06
DTITLE=Grateful Dead - 94-06-25 Sam Boyd Silver Bowl, Las Vegas NV
DYEAR=1900
DGENRE=
TTITLE0=If The Shoe Fits
TTITLE1=Way To Go Home
TTITLE2=Easy Answers
TTITLE3=Uncle John's Band
TTITLE4=Corrina
TTITLE5=Drums
EXTD=
EXTT0=
EXTT1=
EXTT2=
EXTT3=
EXTT4=
EXTT5=
PLAYORDER=
